# xmcd
#
# Track frame offsets:
#	150
#	16914
#	32601
#	52696
#	71167
#	87009
#	105101
#	121702
#	143032
#	164243
#
# Disc length: 2457 seconds
#
# Revision: 1
# Processed by: cddbd v1.4PL0 Copyright (c) Steve Scherf et al.
# Submitted via: audiograbber 1.81.01
#
DISCID=7209970a
DTITLE=Paul Zunno Band - Black and White and Blues All Over
DYEAR=2002
DGENRE=Blues
TTITLE0=I Found My Soul
TTITLE1=My Babe
TTITLE2=I Know You're Here With Me
TTITLE3=I Wanna Love You
TTITLE4=Crying In My Sleep
TTITLE5=Blues In C
TTITLE6=Howlin' Wolf
TTITLE7=You Were Right-I Was Wrong
TTITLE8=So Long I'll See Ya
TTITLE9=Baby Come Back
EXTD=
EXTT0=
EXTT1=
EXTT2=
EXTT3=
EXTT4=
EXTT5=
EXTT6=
EXTT7=
EXTT8=
EXTT9=
PLAYORDER=
